{
  "accessors": [
    {
      "bufferView": 1,
      "componentType": 5126,
      "count": 65532,
      "max": [
        9.1973600387573242,
        8.0729770660400391,
        33.526622772216797
      ],
      "min": [
        -4.5845603942871094,
        -3.1698894500732422,
        1.6150245666503906
      ],
      "type": "VEC3"
    },
    {
      "bufferView": 1,
      "byteOffset": 786384,
      "componentType": 5126,
      "count": 65532,
      "max": [
        0.9999920129776001,
        0.99999874830245972,
        0.99999010562896729
      ],
      "min": [
        -0.99999648332595825,
        -0.99999666213989258,
        -0.99999874830245972
      ],
      "type": "VEC3"
    },
    {
      "bufferView": 2,
      "componentType": 5126,
      "count": 65532,
      "max": [
        0.76470589637756348,
        0.7921568751335144,
        0.77254903316497803,
        1
      ],
      "min": [
        0.45098039507865906,
        0.48235294222831726,
        0.47058823704719543,
        1
      ],
      "type": "VEC4"
    },
    {
      "bufferView": 0,
      "componentType": 5125,
      "count": 322800,
      "max": [
        65531
      ],
      "min": [
        0
      ],
      "type": "SCALAR"
    },
    {
      "bufferView": 1,
      "byteOffset": 1572768,
      "componentType": 5126,
      "count": 65532,
      "max": [
        9.1973600387573242,
        7.0836405754089355,
        22.908771514892578
      ],
      "min": [
        -4.0366630554199219,
        -2.1365866661071777,
        1.6150245666503906
      ],
      "type": "VEC3"
    },
    {
      "bufferView": 1,
      "byteOffset": 2359152,
      "componentType": 5126,
      "count": 65532,
      "max": [
        0.99999916553497314,
        0.99998998641967773,
        0.99971598386764526
      ],
      "min": [
        -0.99985969066619873,
        -0.99999862909317017,
        -0.88388818502426147
      ],
      "type": "VEC3"
    },
    {
      "bufferView": 2,
      "byteOffset": 1048512,
      "componentType": 5126,
      "count": 65532,
      "max": [
        0.74117648601531982,
        0.77254903316497803,
        0.75686275959014893,
        1
      ],
      "min": [
        0.364705890417099,
        0.3803921639919281,
        0.36862745881080627,
        1
      ],
      "type": "VEC4"
    },
    {
      "bufferView": 0,
      "byteOffset": 1291200,
      "componentType": 5125,
      "count": 334422,
      "max": [
        65531
      ],
      "min": [
        0
      ],
      "type": "SCALAR"
    },
    {
      "bufferView": 1,
      "byteOffset": 3145536,
      "componentType": 5126,
      "count": 65532,
      "max": [
        7.6234602928161621,
        8.56622314453125,
        21.256086349487305
      ],
      "min": [
        -4.089752197265625,
        -1.9467082023620605,
        1.6150245666503906
      ],
      "type": "VEC3"
    },
    {
      "bufferView": 1,
      "byteOffset": 3931920,
      "componentType": 5126,
      "count": 65532,
      "max": [
        0.99688202142715454,
        0.99999082088470459,
        0.99992048740386963
      ],
      "min": [
        -0.99999654293060303,
        -0.99999326467514038,
        -0.99999874830245972
      ],
      "type": "VEC3"
    },
    {
      "bufferView": 2,
      "byteOffset": 2097024,
      "componentType": 5126,
      "count": 65532,
      "max": [
        0.7921568751335144,
        0.81176471710205078,
        0.80392158031463623,
        1
      ],
      "min": [
        0.41960784792900085,
        0.43921568989753723,
        0.42745098471641541,
        1
      ],
      "type": "VEC4"
    },
    {
      "bufferView": 0,
      "byteOffset": 2628888,
      "componentType": 5125,
      "count": 329259,
      "max": [
        65531
      ],
      "min": [
        0
      ],
      "type": "SCALAR"
    },
    {
      "bufferView": 1,
      "byteOffset": 4718304,
      "componentType": 5126,
      "count": 65532,
      "max": [
        3.7035198211669922,
        5.0560545921325684,
        28.457828521728516
      ],
      "min": [
        -4.148961067199707,
        -2.0348029136657715,
        1.6150245666503906
      ],
      "type": "VEC3"
    },
    {
      "bufferView": 1,
      "byteOffset": 5504688,
      "componentType": 5126,
      "count": 65532,
      "max": [
        0.99984264373779297,
        0.99995297193527222,
        0.99969691038131714
      ],
      "min": [
        -0.99999922513961792,
        -0.99993503093719482,
        -0.99999874830245972
      ],
      "type": "VEC3"
    },
    {
      "bufferView": 2,
      "byteOffset": 3145536,
      "componentType": 5126,
      "count": 65532,
      "max": [
        0.73333334922790527,
        0.76862746477127075,
        0.76470589637756348,
        1
      ],
      "min": [
        0.5215686559677124,
        0.54509806632995605,
        0.52549022436141968,
        1
      ],
      "type": "VEC4"
    },
    {
      "bufferView": 0,
      "byteOffset": 3945924,
      "componentType": 5125,
      "count": 326475,
      "max": [
        65531
      ],
      "min": [
        0
      ],
      "type": "SCALAR"
    },
    {
      "bufferView": 1,
      "byteOffset": 6291072,
      "componentType": 5126,
      "count": 65532,
      "max": [
        0.23302745819091797,
        5.0817618370056152,
        22.767614364624023
      ],
      "min": [
        -4.0257997512817383,
        -1.9077415466308594,
        6.9710960388183594
      ],
      "type": "VEC3"
    },
    {
      "bufferView": 1,
      "byteOffset": 7077456,
      "componentType": 5126,
      "count": 65532,
      "max": [
        0.80820620059967041,
        0.99955177307128906,
        0.99751061201095581
      ],
      "min": [
        -0.99999904632568359,
        -0.9905627965927124,
        -0.99765825271606445
      ],
      "type": "VEC3"
    },
    {
      "bufferView": 2,
      "byteOffset": 4194048,
      "componentType": 5126,
      "count": 65532,
      "max": [
        0.72549021244049072,
        0.75294119119644165,
        0.73333334922790527,
        1
      ],
      "min": [
        0.56862747669219971,
        0.59607845544815063,
        0.57647061347961426,
        1
      ],
      "type": "VEC4"
    },
    {
      "bufferView": 0,
      "byteOffset": 5251824,
      "componentType": 5125,
      "count": 327375,
      "max": [
        65531
      ],
      "min": [
        0
      ],
      "type": "SCALAR"
    },
    {
      "bufferView": 1,
      "byteOffset": 7863840,
      "componentType": 5126,
      "count": 65532,
      "max": [
        4.4326467514038086,
        8.5392284393310547,
        32.313594818115234
      ],
      "min": [
        -4.0138254165649414,
        -2.9997553825378418,
        1.6150245666503906
      ],
      "type": "VEC3"
    },
    {
      "bufferView": 1,
      "byteOffset": 8650224,
      "componentType": 5126,
      "count": 65532,
      "max": [
        0.99998730421066284,
        0.99999719858169556,
        0.99990135431289673
      ],
      "min": [
        -0.99997496604919434,
        -0.9999992847442627,
        -0.99997961521148682
      ],
      "type": "VEC3"
    },
    {
      "bufferView": 2,
      "byteOffset": 5242560,
      "componentType": 5126,
      "count": 65532,
      "max": [
        0.81176471710205078,
        0.81960785388946533,
        0.81568628549575806,
        1
      ],
      "min": [
        0.46666666865348816,
        0.49411764740943909,
        0.48235294222831726,
        1
      ],
      "type": "VEC4"
    },
    {
      "bufferView": 0,
      "byteOffset": 6561324,
      "componentType": 5125,
      "count": 274524,
      "max": [
        65531
      ],
      "min": [
        0
      ],
      "type": "SCALAR"
    },
    {
      "bufferView": 1,
      "byteOffset": 9436608,
      "componentType": 5126,
      "count": 65532,
      "max": [
        9.1973600387573242,
        9.6285285949707031,
        33.509544372558594
      ],
      "min": [
        -4.5845603942871094,
        -3.1533582210540771,
        1.6150245666503906
      ],
      "type": "VEC3"
    },
    {
      "bufferView": 1,
      "byteOffset": 10222992,
      "componentType": 5126,
      "count": 65532,
      "max": [
        0.9999956488609314,
        0.99975764751434326,
        0.99999141693115234
      ],
      "min": [
        -0.9999956488609314,
        -0.99999326467514038,
        -0.99999874830245972
      ],
      "type": "VEC3"
    },
    {
      "bufferView": 2,
      "byteOffset": 6291072,
      "componentType": 5126,
      "count": 65532,
      "max": [
        0.78039216995239258,
        0.80392158031463623,
        0.78823530673980713,
        1
      ],
      "min": [
        0.17254902422428131,
        0.19215686619281769,
        0.18431372940540314,
        1
      ],
      "type": "VEC4"
    },
    {
      "bufferView": 0,
      "byteOffset": 7659420,
      "componentType": 5125,
      "count": 311700,
      "max": [
        65531
      ],
      "min": [
        0
      ],
      "type": "SCALAR"
    },
    {
      "bufferView": 1,
      "byteOffset": 11009376,
      "componentType": 5126,
      "count": 65532,
      "max": [
        9.1973600387573242,
        8.3592548370361328,
        33.524539947509766
      ],
      "min": [
        -4.5098972320556641,
        -3.1698894500732422,
        1.6150245666503906
      ],
      "type": "VEC3"
    },
    {
      "bufferView": 1,
      "byteOffset": 11795760,
      "componentType": 5126,
      "count": 65532,
      "max": [
        0.9999920129776001,
        0.99995291233062744,
        0.99999749660491943
      ],
      "min": [
        -0.99999994039535522,
        -0.99995332956314087,
        -0.99999511241912842
      ],
      "type": "VEC3"
    },
    {
      "bufferView": 2,
      "byteOffset": 7339584,
      "componentType": 5126,
      "count": 65532,
      "max": [
        0.78431373834609985,
        0.80392158031463623,
        0.78431373834609985,
        1
      ],
      "min": [
        0.43921568989753723,
        0.45882353186607361,
        0.44313725829124451,
        1
      ],
      "type": "VEC4"
    },
    {
      "bufferView": 0,
      "byteOffset": 8906220,
      "componentType": 5125,
      "count": 283338,
      "max": [
        65531
      ],
      "min": [
        0
      ],
      "type": "SCALAR"
    },
    {
      "bufferView": 1,
      "byteOffset": 12582144,
      "componentType": 5126,
      "count": 28191,
      "max": [
        5.6864724159240723,
        8.031280517578125,
        28.026519775390625
      ],
      "min": [
        -4.1421756744384766,
        -2.1793065071105957,
        1.6401596069335938
      ],
      "type": "VEC3"
    },
    {
      "bufferView": 1,
      "byteOffset": 12920436,
      "componentType": 5126,
      "count": 28191,
      "max": [
        0.99997794628143311,
        0.99997496604919434,
        0.99837028980255127
      ],
      "min": [
        -0.99997144937515259,
        -0.99996894598007202,
        -0.96958667039871216
      ],
      "type": "VEC3"
    },
    {
      "bufferView": 2,
      "byteOffset": 8388096,
      "componentType": 5126,
      "count": 28191,
      "max": [
        0.7450980544090271,
        0.76862746477127075,
        0.75686275959014893,
        1
      ],
      "min": [
        0.364705890417099,
        0.3803921639919281,
        0.36862745881080627,
        1
      ],
      "type": "VEC4"
    },
    {
      "bufferView": 0,
      "byteOffset": 10039572,
      "componentType": 5125,
      "count": 102687,
      "max": [
        28190
      ],
      "min": [
        0
      ],
      "type": "SCALAR"
    }
  ],
  "asset": {
    "extras": {
      "author": "Replik8 (https://sketchfab.com/replik8)",
      "license": "CC-BY-4.0 (http://creativecommons.org/licenses/by/4.0/)",
      "source": "https://sketchfab.com/models/6d2a6df3cb094ae284227d5dadffaad0",
      "title": "Finger Cast"
    },
    "generator": "Sketchfab-3.20.4",
    "version": "2.0"
  },
  "bufferViews": [
    {
      "buffer": 0,
      "byteLength": 10450320,
      "byteOffset": 0,
      "name": "floatBufferViews",
      "target": 34963
    },
    {
      "buffer": 0,
      "byteLength": 13258728,
      "byteOffset": 10450320,
      "byteStride": 12,
      "name": "floatBufferViews",
      "target": 34962
    },
    {
      "buffer": 0,
      "byteLength": 8839152,
      "byteOffset": 23709048,
      "byteStride": 16,
      "name": "floatBufferViews",
      "target": 34962
    }
  ],
  "buffers": [
    {
      "byteLength": 32548200,
      "uri": "scene.bin"
    }
  ],
  "materials": [
    {
      "doubleSided": true,
      "emissiveFactor": [
        0,
        0,
        0
      ],
      "name": "model_Material",
      "pbrMetallicRoughness": {
        "baseColorFactor": [
          1,
          1,
          1,
          1
        ],
        "metallicFactor": 0,
        "roughnessFactor": 1
      }
    }
  ],
  "meshes": [
    {
      "primitives": [
        {
          "attributes": {
            "COLOR_0": 2,
            "NORMAL": 1,
            "POSITION": 0
          },
          "indices": 3,
          "material": 0,
          "mode": 4
        }
      ]
    },
    {
      "primitives": [
        {
          "attributes": {
            "COLOR_0": 6,
            "NORMAL": 5,
            "POSITION": 4
          },
          "indices": 7,
          "material": 0,
          "mode": 4
        }
      ]
    },
    {
      "primitives": [
        {
          "attributes": {
            "COLOR_0": 10,
            "NORMAL": 9,
            "POSITION": 8
          },
          "indices": 11,
          "material": 0,
          "mode": 4
        }
      ]
    },
    {
      "primitives": [
        {
          "attributes": {
            "COLOR_0": 14,
            "NORMAL": 13,
            "POSITION": 12
          },
          "indices": 15,
          "material": 0,
          "mode": 4
        }
      ]
    },
    {
      "primitives": [
        {
          "attributes": {
            "COLOR_0": 18,
            "NORMAL": 17,
            "POSITION": 16
          },
          "indices": 19,
          "material": 0,
          "mode": 4
        }
      ]
    },
    {
      "primitives": [
        {
          "attributes": {
            "COLOR_0": 22,
            "NORMAL": 21,
            "POSITION": 20
          },
          "indices": 23,
          "material": 0,
          "mode": 4
        }
      ]
    },
    {
      "primitives": [
        {
          "attributes": {
            "COLOR_0": 26,
            "NORMAL": 25,
            "POSITION": 24
          },
          "indices": 27,
          "material": 0,
          "mode": 4
        }
      ]
    },
    {
      "primitives": [
        {
          "attributes": {
            "COLOR_0": 30,
            "NORMAL": 29,
            "POSITION": 28
          },
          "indices": 31,
          "material": 0,
          "mode": 4
        }
      ]
    },
    {
      "primitives": [
        {
          "attributes": {
            "COLOR_0": 34,
            "NORMAL": 33,
            "POSITION": 32
          },
          "indices": 35,
          "material": 0,
          "mode": 4
        }
      ]
    }
  ],
  "nodes": [
    {
      "children": [
        1
      ],
      "name": "RootNode (gltf orientation matrix)",
      "rotation": [
        -0.70710678118654746,
        -0,
        -0,
        0.70710678118654757
      ]
    },
    {
      "children": [
        2
      ],
      "name": "RootNode (model correction matrix)"
    },
    {
      "children": [
        3,
        4,
        5,
        6,
        7,
        8,
        9,
        10,
        11
      ],
      "name": "model.obj.cleaner.materialmerger.gles"
    },
    {
      "mesh": 0,
      "name": ""
    },
    {
      "mesh": 1,
      "name": ""
    },
    {
      "mesh": 2,
      "name": ""
    },
    {
      "mesh": 3,
      "name": ""
    },
    {
      "mesh": 4,
      "name": ""
    },
    {
      "mesh": 5,
      "name": ""
    },
    {
      "mesh": 6,
      "name": ""
    },
    {
      "mesh": 7,
      "name": ""
    },
    {
      "mesh": 8,
      "name": ""
    }
  ],
  "scene": 0,
  "scenes": [
    {
      "name": "OSG_Scene",
      "nodes": [
        0
      ]
    }
  ]
}

